<svg width="40" height="39" viewBox="0 0 40 39" fill="none" xmlns="http://www.w3.org/2000/svg">
<rect width="40" height="39" rx="19.5" fill="#E4F4D0"/>
<path d="M21.4223 10.8843L19.1319 11.0371C15.9993 11.2461 13.3255 13.3775 12.4233 16.3846V16.3846V16.3846C11.2835 19.5192 12.6746 23.0103 15.6579 24.5018L16.902 25.1239C17.9054 25.6256 18.794 26.3295 19.512 27.1914L20.9223 28.8844L26.9232 25.8845L26.5809 24.6293C25.8555 21.9695 27.568 19.0651 26.9232 16.3846V16.3846C26.453 14.4302 24.9234 12.3846 24.9234 12.3846" stroke="#76BB00"/>
<path d="M21.1966 30.939C20.9505 31.0642 20.8525 31.3652 20.9777 31.6113C21.1029 31.8575 21.4039 31.9555 21.65 31.8303L21.1966 30.939ZM21.65 31.8303L28.4266 28.3831L27.9732 27.4918L21.1966 30.939L21.65 31.8303Z" fill="#76BB00"/>
<line x1="18.9233" y1="16.3846" x2="18.9233" y2="20.3846" stroke="#76BB00"/>
<line x1="19.4233" y1="19.8846" x2="21.4233" y2="19.8846" stroke="#76BB00"/>
<line x1="20.9233" y1="18.3846" x2="20.9233" y2="22.3846" stroke="#76BB00"/>
<line x1="20.4233" y1="18.8846" x2="19.4233" y2="18.8846" stroke="#76BB00"/>
</svg>
